<?xml version="1.0" standalone="no"?>
<!DOCTYPE svg PUBLIC "-//W3C//DTD SVG 20010904//EN"
 "http://www.w3.org/TR/2001/REC-SVG-20010904/DTD/svg10.dtd">
<svg version="1.0" xmlns="http://www.w3.org/2000/svg"
 width="720.000000pt" height="720.000000pt" viewBox="0 0 720.000000 720.000000"
 preserveAspectRatio="xMidYMid meet">
<metadata>
Created by potrace 1.11, written by Peter Selinger 2001-2013
</metadata>
<g transform="translate(0.000000,720.000000) scale(0.100000,-0.100000)"
fill="#000000" stroke="none">
<path d="M3204 7057 c-2 -92 -13 -203 -28 -277 -29 -138 -84 -322 -98 -331 -5
-3 -9 -10 -9 -15 3 -37 -139 -330 -228 -469 -33 -52 -58 -95 -73 -122 -6 -13
-15 -23 -20 -23 -4 0 -8 -5 -8 -11 0 -5 -26 -49 -57 -97 -32 -48 -62 -94 -68
-103 -5 -9 -27 -42 -47 -73 -90 -134 -114 -170 -123 -185 -5 -9 -19 -29 -30
-46 -11 -16 -24 -37 -30 -47 -5 -9 -50 -81 -100 -160 -244 -391 -449 -810
-555 -1138 l-18 -55 -11 45 c-6 25 -18 71 -27 103 -8 32 -17 67 -19 78 -5 23
-81 255 -94 284 -5 11 -19 47 -32 80 -12 33 -32 83 -45 110 -12 28 -31 70 -42
95 -11 25 -34 79 -52 120 -18 41 -35 77 -37 80 -3 3 -2 -22 2 -55 7 -63 8
-218 0 -320 -6 -93 -15 -188 -20 -215 -2 -14 -7 -52 -10 -85 -3 -33 -10 -87
-15 -120 -5 -33 -12 -78 -15 -100 -10 -65 -13 -83 -39 -235 -14 -80 -30 -170
-36 -200 -6 -30 -14 -68 -16 -85 -19 -113 -121 -558 -154 -675 -36 -124 -47
-198 -44 -300 2 -75 10 -175 14 -175 2 0 9 -33 14 -60 5 -30 36 -147 46 -175
5 -14 23 -72 41 -130 17 -58 37 -111 43 -119 6 -8 10 -17 9 -20 -1 -3 2 -22 7
-41 21 -82 19 -100 -15 -176 -99 -217 -291 -436 -575 -656 -187 -144 -265
-211 -264 -226 14 -155 86 -312 190 -416 47 -47 163 -130 224 -160 92 -47 258
-106 340 -121 14 -3 57 -11 95 -20 39 -8 73 -15 77 -15 13 0 69 131 124 290
98 283 174 400 305 470 67 35 59 35 215 1 50 -11 111 -22 135 -26 24 -3 57 -8
72 -11 127 -26 417 -35 607 -21 262 20 530 94 775 213 96 47 251 136 265 153
3 3 39 31 80 62 84 62 123 101 205 204 61 76 202 284 212 313 3 9 12 24 19 32
21 24 168 325 209 425 20 50 43 104 51 120 7 17 68 167 135 335 146 370 143
364 248 580 76 159 126 249 196 356 30 46 55 89 55 94 0 5 6 13 13 17 7 4 20
19 29 33 91 145 330 393 867 900 430 405 590 587 700 792 36 67 87 200 97 253
2 11 7 34 10 50 13 56 15 80 20 240 6 186 10 184 -87 25 -159 -261 -385 -515
-563 -634 -96 -63 -232 -130 -451 -222 -77 -32 -155 -66 -174 -77 -18 -10 -35
-16 -38 -14 -2 3 6 38 18 78 11 41 27 99 35 129 8 30 17 62 19 70 6 22 33 150
40 190 22 124 26 150 30 190 3 25 7 70 11 100 3 30 5 107 5 170 -2 328 -82
565 -247 735 -131 135 -264 185 -480 179 -66 -1 -130 -5 -144 -8 -14 -3 -59
-13 -100 -22 -73 -16 -238 -70 -310 -101 -87 -38 -294 -145 -380 -198 -134
-81 -325 -212 -362 -247 -10 -10 -23 -18 -28 -18 -5 0 -10 8 -11 18 -2 42 -56
247 -79 300 -10 23 -17 42 -15 42 11 0 -158 309 -190 347 -5 6 -21 28 -35 48
-23 34 -96 128 -130 168 -8 9 -17 17 -20 17 -3 0 -6 -37 -6 -83z"/>
</g>
</svg>
